<svg width="55" height="54" viewBox="0 0 55 54" fill="none" xmlns="http://www.w3.org/2000/svg">
<circle cx="27.5073" cy="26.5433" r="26.5433" fill="#072227"/>
<path d="M11.0056 23.5505C10.5736 23.5505 10.1816 23.4805 9.8296 23.3405C9.4776 23.2045 9.1736 23.0125 8.9176 22.7645C8.6656 22.5165 8.4696 22.2245 8.3296 21.8885C8.1936 21.5525 8.1256 21.1865 8.1256 20.7905C8.1256 20.3985 8.1936 20.0365 8.3296 19.7045C8.4696 19.3725 8.6676 19.0825 8.9236 18.8345C9.1796 18.5865 9.4856 18.3945 9.8416 18.2585C10.1976 18.1225 10.5936 18.0545 11.0296 18.0545C11.4496 18.0545 11.8336 18.1205 12.1816 18.2525C12.5296 18.3805 12.8296 18.5625 13.0816 18.7985C13.3336 19.0345 13.5276 19.3125 13.6636 19.6325C13.7996 19.9485 13.8676 20.2945 13.8676 20.6705C13.8676 21.0265 13.8156 21.3305 13.7116 21.5825C13.6116 21.8345 13.4696 22.0265 13.2856 22.1585C13.1016 22.2905 12.8856 22.3565 12.6376 22.3565C12.3656 22.3565 12.1496 22.2765 11.9896 22.1165C11.8296 21.9565 11.7496 21.7225 11.7496 21.4145V21.1385L11.7676 20.8145L11.7136 19.9445V19.3685H12.5296V21.3125C12.5296 21.4565 12.5576 21.5565 12.6136 21.6125C12.6696 21.6685 12.7376 21.6965 12.8176 21.6965C12.9096 21.6965 12.9876 21.6605 13.0516 21.5885C13.1196 21.5165 13.1716 21.4065 13.2076 21.2585C13.2436 21.1065 13.2616 20.9145 13.2616 20.6825C13.2616 20.3785 13.2076 20.1005 13.0996 19.8485C12.9956 19.5965 12.8436 19.3785 12.6436 19.1945C12.4476 19.0105 12.2116 18.8705 11.9356 18.7745C11.6636 18.6745 11.3616 18.6245 11.0296 18.6245C10.6976 18.6245 10.3936 18.6785 10.1176 18.7865C9.8416 18.8945 9.6056 19.0465 9.4096 19.2425C9.2136 19.4345 9.0616 19.6625 8.9536 19.9265C8.8496 20.1905 8.7976 20.4785 8.7976 20.7905C8.7976 21.1105 8.8496 21.4045 8.9536 21.6725C9.0576 21.9365 9.2056 22.1645 9.3976 22.3565C9.5936 22.5525 9.8276 22.7045 10.0996 22.8125C10.3716 22.9205 10.6736 22.9745 11.0056 22.9745C11.1976 22.9745 11.3956 22.9525 11.5996 22.9085C11.8036 22.8685 11.9996 22.8025 12.1876 22.7105L12.3796 23.2625C12.1956 23.3545 11.9796 23.4245 11.7316 23.4725C11.4876 23.5245 11.2456 23.5505 11.0056 23.5505ZM10.7896 22.3565C10.5336 22.3565 10.2996 22.2945 10.0876 22.1705C9.8796 22.0425 9.7136 21.8645 9.5896 21.6365C9.4656 21.4045 9.4036 21.1385 9.4036 20.8385C9.4036 20.5385 9.4636 20.2745 9.5836 20.0465C9.7076 19.8185 9.8736 19.6425 10.0816 19.5185C10.2936 19.3905 10.5296 19.3265 10.7896 19.3265C11.0536 19.3265 11.2796 19.3865 11.4676 19.5065C11.6556 19.6265 11.7996 19.7985 11.8996 20.0225C11.9996 20.2465 12.0496 20.5185 12.0496 20.8385C12.0496 21.1545 12.0016 21.4265 11.9056 21.6545C11.8096 21.8825 11.6676 22.0565 11.4796 22.1765C11.2956 22.2965 11.0656 22.3565 10.7896 22.3565ZM10.9756 21.6665C11.1196 21.6665 11.2476 21.6345 11.3596 21.5705C11.4756 21.5025 11.5656 21.4065 11.6296 21.2825C11.6936 21.1585 11.7256 21.0105 11.7256 20.8385C11.7256 20.6625 11.6936 20.5145 11.6296 20.3945C11.5656 20.2745 11.4756 20.1825 11.3596 20.1185C11.2476 20.0545 11.1196 20.0225 10.9756 20.0225C10.8316 20.0225 10.7036 20.0545 10.5916 20.1185C10.4796 20.1825 10.3916 20.2765 10.3276 20.4005C10.2636 20.5205 10.2316 20.6665 10.2316 20.8385C10.2316 21.0105 10.2636 21.1585 10.3276 21.2825C10.3916 21.4025 10.4796 21.4965 10.5916 21.5645C10.7036 21.6325 10.8316 21.6665 10.9756 21.6665ZM14.6778 22.3145V19.0145C14.6778 18.6505 14.7858 18.3605 15.0018 18.1445C15.2178 17.9245 15.5258 17.8145 15.9258 17.8145C16.0618 17.8145 16.1918 17.8285 16.3158 17.8565C16.4438 17.8845 16.5518 17.9285 16.6398 17.9885L16.3938 18.6665C16.3418 18.6305 16.2838 18.6025 16.2198 18.5825C16.1558 18.5625 16.0878 18.5525 16.0158 18.5525C15.8798 18.5525 15.7738 18.5925 15.6978 18.6725C15.6258 18.7485 15.5898 18.8645 15.5898 19.0205V19.3205L15.6138 19.7225V22.3145H14.6778ZM14.1798 19.8785V19.1585H16.4178V19.8785H14.1798ZM16.9458 22.3145V19.0865H17.8818V22.3145H16.9458ZM17.4138 18.6365C17.2418 18.6365 17.1018 18.5865 16.9938 18.4865C16.8858 18.3865 16.8318 18.2625 16.8318 18.1145C16.8318 17.9665 16.8858 17.8425 16.9938 17.7425C17.1018 17.6425 17.2418 17.5925 17.4138 17.5925C17.5858 17.5925 17.7258 17.6405 17.8338 17.7365C17.9418 17.8285 17.9958 17.9485 17.9958 18.0965C17.9958 18.2525 17.9418 18.3825 17.8338 18.4865C17.7298 18.5865 17.5898 18.6365 17.4138 18.6365ZM18.7474 22.3145V19.0865H19.6414V19.9985L19.5154 19.7345C19.6114 19.5065 19.7654 19.3345 19.9774 19.2185C20.1894 19.0985 20.4474 19.0385 20.7514 19.0385V19.9025C20.7114 19.8985 20.6754 19.8965 20.6434 19.8965C20.6114 19.8925 20.5774 19.8905 20.5414 19.8905C20.2854 19.8905 20.0774 19.9645 19.9174 20.1125C19.7614 20.2565 19.6834 20.4825 19.6834 20.7905V22.3145H18.7474ZM22.8865 22.3625C22.5185 22.3625 22.1945 22.2905 21.9145 22.1465C21.6385 22.0025 21.4245 21.8065 21.2725 21.5585C21.1205 21.3065 21.0445 21.0205 21.0445 20.7005C21.0445 20.3765 21.1185 20.0905 21.2665 19.8425C21.4185 19.5905 21.6245 19.3945 21.8845 19.2545C22.1445 19.1105 22.4385 19.0385 22.7665 19.0385C23.0825 19.0385 23.3665 19.1065 23.6185 19.2425C23.8745 19.3745 24.0765 19.5665 24.2245 19.8185C24.3725 20.0665 24.4465 20.3645 24.4465 20.7125C24.4465 20.7485 24.4445 20.7905 24.4405 20.8385C24.4365 20.8825 24.4325 20.9245 24.4285 20.9645H21.8065V20.4185H23.9365L23.5765 20.5805C23.5765 20.4125 23.5425 20.2665 23.4745 20.1425C23.4065 20.0185 23.3125 19.9225 23.1925 19.8545C23.0725 19.7825 22.9325 19.7465 22.7725 19.7465C22.6125 19.7465 22.4705 19.7825 22.3465 19.8545C22.2265 19.9225 22.1325 20.0205 22.0645 20.1485C21.9965 20.2725 21.9625 20.4205 21.9625 20.5925V20.7365C21.9625 20.9125 22.0005 21.0685 22.0765 21.2045C22.1565 21.3365 22.2665 21.4385 22.4065 21.5105C22.5505 21.5785 22.7185 21.6125 22.9105 21.6125C23.0825 21.6125 23.2325 21.5865 23.3605 21.5345C23.4925 21.4825 23.6125 21.4045 23.7205 21.3005L24.2185 21.8405C24.0705 22.0085 23.8845 22.1385 23.6605 22.2305C23.4365 22.3185 23.1785 22.3625 22.8865 22.3625ZM26.9777 22.3625C26.6937 22.3625 26.4497 22.3025 26.2457 22.1825C26.0417 22.0625 25.8857 21.8805 25.7777 21.6365C25.6697 21.3885 25.6157 21.0765 25.6157 20.7005C25.6157 20.3205 25.6717 20.0085 25.7837 19.7645C25.8997 19.5205 26.0597 19.3385 26.2637 19.2185C26.4677 19.0985 26.7057 19.0385 26.9777 19.0385C27.2817 19.0385 27.5537 19.1065 27.7937 19.2425C28.0377 19.3785 28.2297 19.5705 28.3697 19.8185C28.5137 20.0665 28.5857 20.3605 28.5857 20.7005C28.5857 21.0365 28.5137 21.3285 28.3697 21.5765C28.2297 21.8245 28.0377 22.0185 27.7937 22.1585C27.5537 22.2945 27.2817 22.3625 26.9777 22.3625ZM25.0697 22.3145V17.8625H26.0057V19.7405L25.9457 20.6945L25.9637 21.6545V22.3145H25.0697ZM26.8157 21.5945C26.9717 21.5945 27.1097 21.5585 27.2297 21.4865C27.3537 21.4145 27.4517 21.3125 27.5237 21.1805C27.5997 21.0445 27.6377 20.8845 27.6377 20.7005C27.6377 20.5125 27.5997 20.3525 27.5237 20.2205C27.4517 20.0885 27.3537 19.9865 27.2297 19.9145C27.1097 19.8425 26.9717 19.8065 26.8157 19.8065C26.6597 19.8065 26.5197 19.8425 26.3957 19.9145C26.2717 19.9865 26.1737 20.0885 26.1017 20.2205C26.0297 20.3525 25.9937 20.5125 25.9937 20.7005C25.9937 20.8845 26.0297 21.0445 26.1017 21.1805C26.1737 21.3125 26.2717 21.4145 26.3957 21.4865C26.5197 21.5585 26.6597 21.5945 26.8157 21.5945ZM30.8143 22.3625C30.4463 22.3625 30.1223 22.2905 29.8423 22.1465C29.5663 22.0025 29.3523 21.8065 29.2003 21.5585C29.0483 21.3065 28.9723 21.0205 28.9723 20.7005C28.9723 20.3765 29.0463 20.0905 29.1943 19.8425C29.3463 19.5905 29.5523 19.3945 29.8123 19.2545C30.0723 19.1105 30.3663 19.0385 30.6943 19.0385C31.0103 19.0385 31.2943 19.1065 31.5463 19.2425C31.8023 19.3745 32.0043 19.5665 32.1523 19.8185C32.3003 20.0665 32.3743 20.3645 32.3743 20.7125C32.3743 20.7485 32.3723 20.7905 32.3683 20.8385C32.3643 20.8825 32.3603 20.9245 32.3563 20.9645H29.7343V20.4185H31.8643L31.5043 20.5805C31.5043 20.4125 31.4703 20.2665 31.4023 20.1425C31.3343 20.0185 31.2403 19.9225 31.1203 19.8545C31.0003 19.7825 30.8603 19.7465 30.7003 19.7465C30.5403 19.7465 30.3983 19.7825 30.2743 19.8545C30.1543 19.9225 30.0603 20.0205 29.9923 20.1485C29.9243 20.2725 29.8903 20.4205 29.8903 20.5925V20.7365C29.8903 20.9125 29.9283 21.0685 30.0043 21.2045C30.0843 21.3365 30.1943 21.4385 30.3343 21.5105C30.4783 21.5785 30.6463 21.6125 30.8383 21.6125C31.0103 21.6125 31.1603 21.5865 31.2883 21.5345C31.4203 21.4825 31.5403 21.4045 31.6483 21.3005L32.1463 21.8405C31.9983 22.0085 31.8123 22.1385 31.5883 22.2305C31.3643 22.3185 31.1063 22.3625 30.8143 22.3625ZM34.5994 22.3625C34.2314 22.3625 33.9074 22.2905 33.6274 22.1465C33.3514 22.0025 33.1374 21.8065 32.9854 21.5585C32.8334 21.3065 32.7574 21.0205 32.7574 20.7005C32.7574 20.3765 32.8314 20.0905 32.9794 19.8425C33.1314 19.5905 33.3374 19.3945 33.5974 19.2545C33.8574 19.1105 34.1514 19.0385 34.4794 19.0385C34.7954 19.0385 35.0794 19.1065 35.3314 19.2425C35.5874 19.3745 35.7894 19.5665 35.9374 19.8185C36.0854 20.0665 36.1594 20.3645 36.1594 20.7125C36.1594 20.7485 36.1574 20.7905 36.1534 20.8385C36.1494 20.8825 36.1454 20.9245 36.1414 20.9645H33.5194V20.4185H35.6494L35.2894 20.5805C35.2894 20.4125 35.2554 20.2665 35.1874 20.1425C35.1194 20.0185 35.0254 19.9225 34.9054 19.8545C34.7854 19.7825 34.6454 19.7465 34.4854 19.7465C34.3254 19.7465 34.1834 19.7825 34.0594 19.8545C33.9394 19.9225 33.8454 20.0205 33.7774 20.1485C33.7094 20.2725 33.6754 20.4205 33.6754 20.5925V20.7365C33.6754 20.9125 33.7134 21.0685 33.7894 21.2045C33.8694 21.3365 33.9794 21.4385 34.1194 21.5105C34.2634 21.5785 34.4314 21.6125 34.6234 21.6125C34.7954 21.6125 34.9454 21.5865 35.0734 21.5345C35.2054 21.4825 35.3254 21.4045 35.4334 21.3005L35.9314 21.8405C35.7834 22.0085 35.5974 22.1385 35.3734 22.2305C35.1494 22.3185 34.8914 22.3625 34.5994 22.3625ZM38.3846 22.3625C38.0166 22.3625 37.6926 22.2905 37.4126 22.1465C37.1366 22.0025 36.9226 21.8065 36.7706 21.5585C36.6186 21.3065 36.5426 21.0205 36.5426 20.7005C36.5426 20.3765 36.6166 20.0905 36.7646 19.8425C36.9166 19.5905 37.1226 19.3945 37.3826 19.2545C37.6426 19.1105 37.9366 19.0385 38.2646 19.0385C38.5806 19.0385 38.8646 19.1065 39.1166 19.2425C39.3726 19.3745 39.5746 19.5665 39.7226 19.8185C39.8706 20.0665 39.9446 20.3645 39.9446 20.7125C39.9446 20.7485 39.9426 20.7905 39.9386 20.8385C39.9346 20.8825 39.9306 20.9245 39.9266 20.9645H37.3046V20.4185H39.4346L39.0746 20.5805C39.0746 20.4125 39.0406 20.2665 38.9726 20.1425C38.9046 20.0185 38.8106 19.9225 38.6906 19.8545C38.5706 19.7825 38.4306 19.7465 38.2706 19.7465C38.1106 19.7465 37.9686 19.7825 37.8446 19.8545C37.7246 19.9225 37.6306 20.0205 37.5626 20.1485C37.4946 20.2725 37.4606 20.4205 37.4606 20.5925V20.7365C37.4606 20.9125 37.4986 21.0685 37.5746 21.2045C37.6546 21.3365 37.7646 21.4385 37.9046 21.5105C38.0486 21.5785 38.2166 21.6125 38.4086 21.6125C38.5806 21.6125 38.7306 21.5865 38.8586 21.5345C38.9906 21.4825 39.1106 21.4045 39.2186 21.3005L39.7166 21.8405C39.5686 22.0085 39.3826 22.1385 39.1586 22.2305C38.9346 22.3185 38.6766 22.3625 38.3846 22.3625ZM40.3164 22.3145V21.7505L42.2244 19.4945L42.3864 19.8065H40.3584V19.0865H43.1424V19.6505L41.2344 21.9065L41.0664 21.5945H43.1964V22.3145H40.3164ZM45.3572 22.3625C44.9892 22.3625 44.6652 22.2905 44.3852 22.1465C44.1092 22.0025 43.8952 21.8065 43.7432 21.5585C43.5912 21.3065 43.5152 21.0205 43.5152 20.7005C43.5152 20.3765 43.5892 20.0905 43.7372 19.8425C43.8892 19.5905 44.0952 19.3945 44.3552 19.2545C44.6152 19.1105 44.9092 19.0385 45.2372 19.0385C45.5532 19.0385 45.8372 19.1065 46.0892 19.2425C46.3452 19.3745 46.5472 19.5665 46.6952 19.8185C46.8432 20.0665 46.9172 20.3645 46.9172 20.7125C46.9172 20.7485 46.9152 20.7905 46.9112 20.8385C46.9072 20.8825 46.9032 20.9245 46.8992 20.9645H44.2772V20.4185H46.4072L46.0472 20.5805C46.0472 20.4125 46.0132 20.2665 45.9452 20.1425C45.8772 20.0185 45.7832 19.9225 45.6632 19.8545C45.5432 19.7825 45.4032 19.7465 45.2432 19.7465C45.0832 19.7465 44.9412 19.7825 44.8172 19.8545C44.6972 19.9225 44.6032 20.0205 44.5352 20.1485C44.4672 20.2725 44.4332 20.4205 44.4332 20.5925V20.7365C44.4332 20.9125 44.4712 21.0685 44.5472 21.2045C44.6272 21.3365 44.7372 21.4385 44.8772 21.5105C45.0212 21.5785 45.1892 21.6125 45.3812 21.6125C45.5532 21.6125 45.7032 21.5865 45.8312 21.5345C45.9632 21.4825 46.0832 21.4045 46.1912 21.3005L46.6892 21.8405C46.5412 22.0085 46.3552 22.1385 46.1312 22.2305C45.9072 22.3185 45.6492 22.3625 45.3572 22.3625ZM11.3977 28.3145L10.6137 26.1785H11.0857L11.7577 28.0625H11.5337L12.2377 26.1785H12.6577L13.3417 28.0625H13.1217L13.8137 26.1785H14.2577L13.4697 28.3145H12.9897L12.3657 26.6465H12.5137L11.8777 28.3145H11.3977ZM15.5468 28.3425C15.3095 28.3425 15.1015 28.2958 14.9228 28.2025C14.7468 28.1065 14.6095 27.9758 14.5108 27.8105C14.4148 27.6451 14.3668 27.4571 14.3668 27.2465C14.3668 27.0331 14.4135 26.8451 14.5068 26.6825C14.6028 26.5171 14.7335 26.3878 14.8988 26.2945C15.0668 26.2011 15.2575 26.1545 15.4708 26.1545C15.6788 26.1545 15.8642 26.1998 16.0268 26.2905C16.1895 26.3811 16.3175 26.5091 16.4108 26.6745C16.5042 26.8398 16.5508 27.0345 16.5508 27.2585C16.5508 27.2798 16.5495 27.3038 16.5468 27.3305C16.5468 27.3571 16.5455 27.3825 16.5428 27.4065H14.7628V27.0745H16.2788L16.0828 27.1785C16.0855 27.0558 16.0602 26.9478 16.0068 26.8545C15.9535 26.7611 15.8802 26.6878 15.7868 26.6345C15.6962 26.5811 15.5908 26.5545 15.4708 26.5545C15.3482 26.5545 15.2402 26.5811 15.1468 26.6345C15.0562 26.6878 14.9842 26.7625 14.9308 26.8585C14.8802 26.9518 14.8548 27.0625 14.8548 27.1905V27.2705C14.8548 27.3985 14.8842 27.5118 14.9428 27.6105C15.0015 27.7091 15.0842 27.7851 15.1908 27.8385C15.2975 27.8918 15.4202 27.9185 15.5588 27.9185C15.6788 27.9185 15.7868 27.8998 15.8828 27.8625C15.9788 27.8251 16.0642 27.7665 16.1388 27.6865L16.4068 27.9945C16.3108 28.1065 16.1895 28.1931 16.0428 28.2545C15.8988 28.3131 15.7335 28.3425 15.5468 28.3425ZM18.2151 28.3425C18.0338 28.3425 17.8725 28.3025 17.7311 28.2225C17.5898 28.1425 17.4778 28.0225 17.3951 27.8625C17.3151 27.6998 17.2751 27.4945 17.2751 27.2465C17.2751 26.9958 17.3165 26.7905 17.3991 26.6305C17.4845 26.4705 17.5978 26.3518 17.7391 26.2745C17.8831 26.1945 18.0418 26.1545 18.2151 26.1545C18.4258 26.1545 18.6111 26.1998 18.7711 26.2905C18.9338 26.3811 19.0618 26.5078 19.1551 26.6705C19.2511 26.8331 19.2991 27.0251 19.2991 27.2465C19.2991 27.4678 19.2511 27.6598 19.1551 27.8225C19.0618 27.9851 18.9338 28.1131 18.7711 28.2065C18.6111 28.2971 18.4258 28.3425 18.2151 28.3425ZM17.0311 28.3145V25.3465H17.5311V26.6745L17.4911 27.2425L17.5071 27.8105V28.3145H17.0311ZM18.1591 27.9145C18.2791 27.9145 18.3858 27.8878 18.4791 27.8345C18.5751 27.7811 18.6511 27.7038 18.7071 27.6025C18.7631 27.5011 18.7911 27.3825 18.7911 27.2465C18.7911 27.1078 18.7631 26.9891 18.7071 26.8905C18.6511 26.7891 18.5751 26.7118 18.4791 26.6585C18.3858 26.6051 18.2791 26.5785 18.1591 26.5785C18.0391 26.5785 17.9311 26.6051 17.8351 26.6585C17.7391 26.7118 17.6631 26.7891 17.6071 26.8905C17.5511 26.9891 17.5231 27.1078 17.5231 27.2465C17.5231 27.3825 17.5511 27.5011 17.6071 27.6025C17.6631 27.7038 17.7391 27.7811 17.8351 27.8345C17.9311 27.8878 18.0391 27.9145 18.1591 27.9145ZM19.7044 27.4105V26.9945H20.8044V27.4105H19.7044ZM22.5434 28.3425C22.3701 28.3425 22.2114 28.3025 22.0674 28.2225C21.9261 28.1425 21.8128 28.0225 21.7274 27.8625C21.6448 27.6998 21.6034 27.4945 21.6034 27.2465C21.6034 26.9958 21.6434 26.7905 21.7234 26.6305C21.8061 26.4705 21.9181 26.3518 22.0594 26.2745C22.2008 26.1945 22.3621 26.1545 22.5434 26.1545C22.7541 26.1545 22.9394 26.1998 23.0994 26.2905C23.2621 26.3811 23.3901 26.5078 23.4834 26.6705C23.5794 26.8331 23.6274 27.0251 23.6274 27.2465C23.6274 27.4678 23.5794 27.6611 23.4834 27.8265C23.3901 27.9891 23.2621 28.1158 23.0994 28.2065C22.9394 28.2971 22.7541 28.3425 22.5434 28.3425ZM21.3594 29.0905V26.1785H21.8354V26.6825L21.8194 27.2505L21.8594 27.8185V29.0905H21.3594ZM22.4874 27.9145C22.6074 27.9145 22.7141 27.8878 22.8074 27.8345C22.9034 27.7811 22.9794 27.7038 23.0354 27.6025C23.0914 27.5011 23.1194 27.3825 23.1194 27.2465C23.1194 27.1078 23.0914 26.9891 23.0354 26.8905C22.9794 26.7891 22.9034 26.7118 22.8074 26.6585C22.7141 26.6051 22.6074 26.5785 22.4874 26.5785C22.3674 26.5785 22.2594 26.6051 22.1634 26.6585C22.0674 26.7118 21.9914 26.7891 21.9354 26.8905C21.8794 26.9891 21.8514 27.1078 21.8514 27.2465C21.8514 27.3825 21.8794 27.5011 21.9354 27.6025C21.9914 27.7038 22.0674 27.7811 22.1634 27.8345C22.2594 27.8878 22.3674 27.9145 22.4874 27.9145ZM25.3937 28.3145V27.8825L25.3657 27.7905V27.0345C25.3657 26.8878 25.3217 26.7745 25.2337 26.6945C25.1457 26.6118 25.0124 26.5705 24.8337 26.5705C24.7137 26.5705 24.5951 26.5891 24.4777 26.6265C24.3631 26.6638 24.2657 26.7158 24.1857 26.7825L23.9897 26.4185C24.1044 26.3305 24.2404 26.2651 24.3977 26.2225C24.5577 26.1771 24.7231 26.1545 24.8937 26.1545C25.2031 26.1545 25.4417 26.2291 25.6097 26.3785C25.7804 26.5251 25.8657 26.7531 25.8657 27.0625V28.3145H25.3937ZM24.7217 28.3425C24.5617 28.3425 24.4217 28.3158 24.3017 28.2625C24.1817 28.2065 24.0884 28.1305 24.0217 28.0345C23.9577 27.9358 23.9257 27.8251 23.9257 27.7025C23.9257 27.5825 23.9537 27.4745 24.0097 27.3785C24.0684 27.2825 24.1631 27.2065 24.2937 27.1505C24.4244 27.0945 24.5977 27.0665 24.8137 27.0665H25.4337V27.3985H24.8497C24.6791 27.3985 24.5644 27.4265 24.5057 27.4825C24.4471 27.5358 24.4177 27.6025 24.4177 27.6825C24.4177 27.7731 24.4537 27.8451 24.5257 27.8985C24.5977 27.9518 24.6977 27.9785 24.8257 27.9785C24.9484 27.9785 25.0577 27.9505 25.1537 27.8945C25.2524 27.8385 25.3231 27.7558 25.3657 27.6465L25.4497 27.9465C25.4017 28.0718 25.3151 28.1691 25.1897 28.2385C25.0671 28.3078 24.9111 28.3425 24.7217 28.3425ZM27.1331 28.3505C26.9704 28.3505 26.8091 28.3318 26.6491 28.2945C26.4918 28.2545 26.3491 28.1985 26.2211 28.1265L26.3611 27.7545C26.4651 27.8131 26.5824 27.8585 26.7131 27.8905C26.8438 27.9225 26.9744 27.9385 27.1051 27.9385C27.2171 27.9385 27.3131 27.9278 27.3931 27.9065C27.4731 27.8825 27.5344 27.8478 27.5771 27.8025C27.6224 27.7571 27.6451 27.7051 27.6451 27.6465C27.6451 27.5611 27.6078 27.4971 27.5331 27.4545C27.4611 27.4091 27.3571 27.3865 27.2211 27.3865H26.8091V27.0505H27.1811C27.2664 27.0505 27.3384 27.0411 27.3971 27.0225C27.4584 27.0038 27.5051 26.9758 27.5371 26.9385C27.5691 26.9011 27.5851 26.8571 27.5851 26.8065C27.5851 26.7558 27.5651 26.7118 27.5251 26.6745C27.4878 26.6345 27.4331 26.6051 27.3611 26.5865C27.2891 26.5651 27.2024 26.5545 27.1011 26.5545C26.9944 26.5545 26.8838 26.5678 26.7691 26.5945C26.6571 26.6211 26.5424 26.6598 26.4251 26.7105L26.2971 26.3425C26.4331 26.2811 26.5651 26.2345 26.6931 26.2025C26.8238 26.1678 26.9531 26.1491 27.0811 26.1465C27.2758 26.1385 27.4491 26.1585 27.6011 26.2065C27.7531 26.2545 27.8731 26.3238 27.9611 26.4145C28.0491 26.5051 28.0931 26.6118 28.0931 26.7345C28.0931 26.8358 28.0611 26.9278 27.9971 27.0105C27.9358 27.0905 27.8504 27.1531 27.7411 27.1985C27.6344 27.2438 27.5118 27.2665 27.3731 27.2665L27.3891 27.1585C27.6264 27.1585 27.8131 27.2065 27.9491 27.3025C28.0851 27.3958 28.1531 27.5238 28.1531 27.6865C28.1531 27.8171 28.1091 27.9331 28.0211 28.0345C27.9331 28.1331 27.8118 28.2105 27.6571 28.2665C27.5051 28.3225 27.3304 28.3505 27.1331 28.3505ZM29.852 28.3425C29.6787 28.3425 29.52 28.3025 29.376 28.2225C29.2347 28.1425 29.1214 28.0225 29.036 27.8625C28.9534 27.6998 28.912 27.4945 28.912 27.2465C28.912 26.9958 28.952 26.7905 29.032 26.6305C29.1147 26.4705 29.2267 26.3518 29.368 26.2745C29.5094 26.1945 29.6707 26.1545 29.852 26.1545C30.0627 26.1545 30.248 26.1998 30.408 26.2905C30.5707 26.3811 30.6987 26.5078 30.792 26.6705C30.888 26.8331 30.936 27.0251 30.936 27.2465C30.936 27.4678 30.888 27.6611 30.792 27.8265C30.6987 27.9891 30.5707 28.1158 30.408 28.2065C30.248 28.2971 30.0627 28.3425 29.852 28.3425ZM28.668 29.0905V26.1785H29.144V26.6825L29.128 27.2505L29.168 27.8185V29.0905H28.668ZM29.796 27.9145C29.916 27.9145 30.0227 27.8878 30.116 27.8345C30.212 27.7811 30.288 27.7038 30.344 27.6025C30.4 27.5011 30.428 27.3825 30.428 27.2465C30.428 27.1078 30.4 26.9891 30.344 26.8905C30.288 26.7891 30.212 26.7118 30.116 26.6585C30.0227 26.6051 29.916 26.5785 29.796 26.5785C29.676 26.5785 29.568 26.6051 29.472 26.6585C29.376 26.7118 29.3 26.7891 29.244 26.8905C29.188 26.9891 29.16 27.1078 29.16 27.2465C29.16 27.3825 29.188 27.5011 29.244 27.6025C29.3 27.7038 29.376 27.7811 29.472 27.8345C29.568 27.8878 29.676 27.9145 29.796 27.9145ZM32.7023 28.3145V27.8825L32.6743 27.7905V27.0345C32.6743 26.8878 32.6303 26.7745 32.5423 26.6945C32.4543 26.6118 32.321 26.5705 32.1423 26.5705C32.0223 26.5705 31.9036 26.5891 31.7863 26.6265C31.6716 26.6638 31.5743 26.7158 31.4943 26.7825L31.2983 26.4185C31.413 26.3305 31.549 26.2651 31.7063 26.2225C31.8663 26.1771 32.0316 26.1545 32.2023 26.1545C32.5116 26.1545 32.7503 26.2291 32.9183 26.3785C33.089 26.5251 33.1743 26.7531 33.1743 27.0625V28.3145H32.7023ZM32.0303 28.3425C31.8703 28.3425 31.7303 28.3158 31.6103 28.2625C31.4903 28.2065 31.397 28.1305 31.3303 28.0345C31.2663 27.9358 31.2343 27.8251 31.2343 27.7025C31.2343 27.5825 31.2623 27.4745 31.3183 27.3785C31.377 27.2825 31.4716 27.2065 31.6023 27.1505C31.733 27.0945 31.9063 27.0665 32.1223 27.0665H32.7423V27.3985H32.1583C31.9876 27.3985 31.873 27.4265 31.8143 27.4825C31.7556 27.5358 31.7263 27.6025 31.7263 27.6825C31.7263 27.7731 31.7623 27.8451 31.8343 27.8985C31.9063 27.9518 32.0063 27.9785 32.1343 27.9785C32.257 27.9785 32.3663 27.9505 32.4623 27.8945C32.561 27.8385 32.6316 27.7558 32.6743 27.6465L32.7583 27.9465C32.7103 28.0718 32.6236 28.1691 32.4983 28.2385C32.3756 28.3078 32.2196 28.3425 32.0303 28.3425ZM34.813 28.3545C34.637 28.3545 34.4797 28.3278 34.341 28.2745C34.2024 28.2211 34.0824 28.1398 33.981 28.0305C33.8824 27.9185 33.8064 27.7771 33.753 27.6065C33.6997 27.4358 33.673 27.2331 33.673 26.9985C33.673 26.8278 33.6877 26.6718 33.717 26.5305C33.7464 26.3891 33.7904 26.2625 33.849 26.1505C33.9077 26.0358 33.981 25.9345 34.069 25.8465C34.1597 25.7585 34.265 25.6851 34.385 25.6265C34.505 25.5678 34.641 25.5225 34.793 25.4905L35.785 25.2785L35.857 25.7265L34.957 25.9105C34.9064 25.9211 34.845 25.9371 34.773 25.9585C34.7037 25.9771 34.6317 26.0065 34.557 26.0465C34.485 26.0838 34.417 26.1385 34.353 26.2105C34.2917 26.2798 34.241 26.3705 34.201 26.4825C34.1637 26.5918 34.145 26.7291 34.145 26.8945C34.145 26.9451 34.1464 26.9838 34.149 27.0105C34.1544 27.0345 34.1584 27.0611 34.161 27.0905C34.1664 27.1171 34.169 27.1571 34.169 27.2105L33.981 27.0145C34.0344 26.8785 34.1077 26.7625 34.201 26.6665C34.297 26.5678 34.4077 26.4931 34.533 26.4425C34.661 26.3891 34.7997 26.3625 34.949 26.3625C35.149 26.3625 35.3264 26.4038 35.481 26.4865C35.6357 26.5691 35.757 26.6851 35.845 26.8345C35.933 26.9838 35.977 27.1531 35.977 27.3425C35.977 27.5398 35.929 27.7145 35.833 27.8665C35.737 28.0185 35.601 28.1385 35.425 28.2265C35.2517 28.3118 35.0477 28.3545 34.813 28.3545ZM34.853 27.9505C34.973 27.9505 35.0784 27.9251 35.169 27.8745C35.2624 27.8211 35.3344 27.7491 35.385 27.6585C35.4384 27.5678 35.465 27.4665 35.465 27.3545C35.465 27.2425 35.4384 27.1451 35.385 27.0625C35.3344 26.9771 35.2624 26.9091 35.169 26.8585C35.0784 26.8078 34.9704 26.7825 34.845 26.7825C34.725 26.7825 34.617 26.8065 34.521 26.8545C34.4277 26.9025 34.3544 26.9691 34.301 27.0545C34.2504 27.1371 34.225 27.2331 34.225 27.3425C34.225 27.4545 34.2517 27.5571 34.305 27.6505C34.3584 27.7438 34.4317 27.8171 34.525 27.8705C34.621 27.9238 34.7304 27.9505 34.853 27.9505ZM37.413 28.3425C37.1943 28.3425 36.9997 28.2958 36.829 28.2025C36.6583 28.1065 36.5237 27.9758 36.425 27.8105C36.3263 27.6451 36.277 27.4571 36.277 27.2465C36.277 27.0331 36.3263 26.8451 36.425 26.6825C36.5237 26.5171 36.6583 26.3878 36.829 26.2945C36.9997 26.2011 37.1943 26.1545 37.413 26.1545C37.6343 26.1545 37.8303 26.2011 38.001 26.2945C38.1743 26.3878 38.309 26.5158 38.405 26.6785C38.5037 26.8411 38.553 27.0305 38.553 27.2465C38.553 27.4571 38.5037 27.6451 38.405 27.8105C38.309 27.9758 38.1743 28.1065 38.001 28.2025C37.8303 28.2958 37.6343 28.3425 37.413 28.3425ZM37.413 27.9145C37.5357 27.9145 37.645 27.8878 37.741 27.8345C37.837 27.7811 37.9117 27.7038 37.965 27.6025C38.021 27.5011 38.049 27.3825 38.049 27.2465C38.049 27.1078 38.021 26.9891 37.965 26.8905C37.9117 26.7891 37.837 26.7118 37.741 26.6585C37.645 26.6051 37.537 26.5785 37.417 26.5785C37.2943 26.5785 37.185 26.6051 37.089 26.6585C36.9957 26.7118 36.921 26.7891 36.865 26.8905C36.809 26.9891 36.781 27.1078 36.781 27.2465C36.781 27.3825 36.809 27.5011 36.865 27.6025C36.921 27.7038 36.9957 27.7811 37.089 27.8345C37.185 27.8878 37.293 27.9145 37.413 27.9145ZM39.4128 28.3145V26.4825L39.5288 26.6025H38.6608V26.1785H40.6608V26.6025H39.7968L39.9128 26.4825V28.3145H39.4128ZM42.5555 28.3145L41.7835 27.2905L42.1915 27.0385L43.1435 28.3145H42.5555ZM41.0235 28.3145V26.1785H41.5235V28.3145H41.0235ZM41.3755 27.4585V27.0425H42.0995V27.4585H41.3755ZM42.2395 27.3065L41.7715 27.2505L42.5555 26.1785H43.0915L42.2395 27.3065ZM44.7531 28.3145V27.8825L44.7251 27.7905V27.0345C44.7251 26.8878 44.6811 26.7745 44.5931 26.6945C44.5051 26.6118 44.3718 26.5705 44.1931 26.5705C44.0731 26.5705 43.9544 26.5891 43.8371 26.6265C43.7224 26.6638 43.6251 26.7158 43.5451 26.7825L43.3491 26.4185C43.4638 26.3305 43.5998 26.2651 43.7571 26.2225C43.9171 26.1771 44.0824 26.1545 44.2531 26.1545C44.5624 26.1545 44.8011 26.2291 44.9691 26.3785C45.1398 26.5251 45.2251 26.7531 45.2251 27.0625V28.3145H44.7531ZM44.0811 28.3425C43.9211 28.3425 43.7811 28.3158 43.6611 28.2625C43.5411 28.2065 43.4478 28.1305 43.3811 28.0345C43.3171 27.9358 43.2851 27.8251 43.2851 27.7025C43.2851 27.5825 43.3131 27.4745 43.3691 27.3785C43.4278 27.2825 43.5224 27.2065 43.6531 27.1505C43.7838 27.0945 43.9571 27.0665 44.1731 27.0665H44.7931V27.3985H44.2091C44.0384 27.3985 43.9238 27.4265 43.8651 27.4825C43.8064 27.5358 43.7771 27.6025 43.7771 27.6825C43.7771 27.7731 43.8131 27.8451 43.8851 27.8985C43.9571 27.9518 44.0571 27.9785 44.1851 27.9785C44.3078 27.9785 44.4171 27.9505 44.5131 27.8945C44.6118 27.8385 44.6824 27.7558 44.7251 27.6465L44.8091 27.9465C44.7611 28.0718 44.6744 28.1691 44.5491 28.2385C44.4264 28.3078 44.2704 28.3425 44.0811 28.3425ZM15.2707 34.3145L14.4867 32.1785H14.9587L15.6307 34.0625H15.4067L16.1107 32.1785H16.5307L17.2147 34.0625H16.9947L17.6867 32.1785H18.1307L17.3427 34.3145H16.8627L16.2387 32.6465H16.3867L15.7507 34.3145H15.2707ZM19.4199 34.3425C19.1826 34.3425 18.9746 34.2958 18.7959 34.2025C18.6199 34.1065 18.4826 33.9758 18.3839 33.8105C18.2879 33.6451 18.2399 33.4571 18.2399 33.2465C18.2399 33.0331 18.2866 32.8451 18.3799 32.6825C18.4759 32.5171 18.6066 32.3878 18.7719 32.2945C18.9399 32.2011 19.1306 32.1545 19.3439 32.1545C19.5519 32.1545 19.7372 32.1998 19.8999 32.2905C20.0626 32.3811 20.1906 32.5091 20.2839 32.6745C20.3772 32.8398 20.4239 33.0345 20.4239 33.2585C20.4239 33.2798 20.4226 33.3038 20.4199 33.3305C20.4199 33.3571 20.4186 33.3825 20.4159 33.4065H18.6359V33.0745H20.1519L19.9559 33.1785C19.9586 33.0558 19.9332 32.9478 19.8799 32.8545C19.8266 32.7611 19.7532 32.6878 19.6599 32.6345C19.5692 32.5811 19.4639 32.5545 19.3439 32.5545C19.2212 32.5545 19.1132 32.5811 19.0199 32.6345C18.9292 32.6878 18.8572 32.7625 18.8039 32.8585C18.7532 32.9518 18.7279 33.0625 18.7279 33.1905V33.2705C18.7279 33.3985 18.7572 33.5118 18.8159 33.6105C18.8746 33.7091 18.9572 33.7851 19.0639 33.8385C19.1706 33.8918 19.2932 33.9185 19.4319 33.9185C19.5519 33.9185 19.6599 33.8998 19.7559 33.8625C19.8519 33.8251 19.9372 33.7665 20.0119 33.6865L20.2799 33.9945C20.1839 34.1065 20.0626 34.1931 19.9159 34.2545C19.7719 34.3131 19.6066 34.3425 19.4199 34.3425ZM22.0882 34.3425C21.9068 34.3425 21.7455 34.3025 21.6042 34.2225C21.4628 34.1425 21.3508 34.0225 21.2682 33.8625C21.1882 33.6998 21.1482 33.4945 21.1482 33.2465C21.1482 32.9958 21.1895 32.7905 21.2722 32.6305C21.3575 32.4705 21.4708 32.3518 21.6122 32.2745C21.7562 32.1945 21.9148 32.1545 22.0882 32.1545C22.2988 32.1545 22.4842 32.1998 22.6442 32.2905C22.8068 32.3811 22.9348 32.5078 23.0282 32.6705C23.1242 32.8331 23.1722 33.0251 23.1722 33.2465C23.1722 33.4678 23.1242 33.6598 23.0282 33.8225C22.9348 33.9851 22.8068 34.1131 22.6442 34.2065C22.4842 34.2971 22.2988 34.3425 22.0882 34.3425ZM20.9042 34.3145V31.3465H21.4042V32.6745L21.3642 33.2425L21.3802 33.8105V34.3145H20.9042ZM22.0322 33.9145C22.1522 33.9145 22.2588 33.8878 22.3522 33.8345C22.4482 33.7811 22.5242 33.7038 22.5802 33.6025C22.6362 33.5011 22.6642 33.3825 22.6642 33.2465C22.6642 33.1078 22.6362 32.9891 22.5802 32.8905C22.5242 32.7891 22.4482 32.7118 22.3522 32.6585C22.2588 32.6051 22.1522 32.5785 22.0322 32.5785C21.9122 32.5785 21.8042 32.6051 21.7082 32.6585C21.6122 32.7118 21.5362 32.7891 21.4802 32.8905C21.4242 32.9891 21.3962 33.1078 21.3962 33.2465C21.3962 33.3825 21.4242 33.5011 21.4802 33.6025C21.5362 33.7038 21.6122 33.7811 21.7082 33.8345C21.8042 33.8878 21.9122 33.9145 22.0322 33.9145ZM23.5774 33.4105V32.9945H24.6774V33.4105H23.5774ZM26.6691 34.0825V32.6025H25.8491L25.8371 32.9465C25.8318 33.0691 25.8238 33.1878 25.8131 33.3025C25.8025 33.4145 25.7851 33.5185 25.7611 33.6145C25.7371 33.7078 25.7025 33.7851 25.6571 33.8465C25.6118 33.9078 25.5518 33.9478 25.4771 33.9665L24.9811 33.8905C25.0611 33.8905 25.1251 33.8651 25.1731 33.8145C25.2238 33.7611 25.2625 33.6891 25.2891 33.5985C25.3185 33.5051 25.3398 33.3998 25.3531 33.2825C25.3665 33.1625 25.3758 33.0385 25.3811 32.9105L25.4091 32.1785H27.1691V34.0825H26.6691ZM24.9051 34.7905V33.8905H27.4851V34.7905H27.0171V34.3145H25.3691V34.7905H24.9051ZM27.9317 34.3145V32.1785H28.4317V33.5865L29.6117 32.1785H30.0677V34.3145H29.5677V32.9065L28.3917 34.3145H27.9317ZM31.389 34.3505C31.2263 34.3505 31.065 34.3318 30.905 34.2945C30.7476 34.2545 30.605 34.1985 30.477 34.1265L30.617 33.7545C30.721 33.8131 30.8383 33.8585 30.969 33.8905C31.0996 33.9225 31.2303 33.9385 31.361 33.9385C31.473 33.9385 31.569 33.9278 31.649 33.9065C31.729 33.8825 31.7903 33.8478 31.833 33.8025C31.8783 33.7571 31.901 33.7051 31.901 33.6465C31.901 33.5611 31.8636 33.4971 31.789 33.4545C31.717 33.4091 31.613 33.3865 31.477 33.3865H31.065V33.0505H31.437C31.5223 33.0505 31.5943 33.0411 31.653 33.0225C31.7143 33.0038 31.761 32.9758 31.793 32.9385C31.825 32.9011 31.841 32.8571 31.841 32.8065C31.841 32.7558 31.821 32.7118 31.781 32.6745C31.7436 32.6345 31.689 32.6051 31.617 32.5865C31.545 32.5651 31.4583 32.5545 31.357 32.5545C31.2503 32.5545 31.1396 32.5678 31.025 32.5945C30.913 32.6211 30.7983 32.6598 30.681 32.7105L30.553 32.3425C30.689 32.2811 30.821 32.2345 30.949 32.2025C31.0796 32.1678 31.209 32.1491 31.337 32.1465C31.5316 32.1385 31.705 32.1585 31.857 32.2065C32.009 32.2545 32.129 32.3238 32.217 32.4145C32.305 32.5051 32.349 32.6118 32.349 32.7345C32.349 32.8358 32.317 32.9278 32.253 33.0105C32.1916 33.0905 32.1063 33.1531 31.997 33.1985C31.8903 33.2438 31.7676 33.2665 31.629 33.2665L31.645 33.1585C31.8823 33.1585 32.069 33.2065 32.205 33.3025C32.341 33.3958 32.409 33.5238 32.409 33.6865C32.409 33.8171 32.365 33.9331 32.277 34.0345C32.189 34.1331 32.0676 34.2105 31.913 34.2665C31.761 34.3225 31.5863 34.3505 31.389 34.3505ZM34.2199 34.3145V33.8825L34.1919 33.7905V33.0345C34.1919 32.8878 34.1479 32.7745 34.0599 32.6945C33.9719 32.6118 33.8386 32.5705 33.6599 32.5705C33.5399 32.5705 33.4212 32.5891 33.3039 32.6265C33.1892 32.6638 33.0919 32.7158 33.0119 32.7825L32.8159 32.4185C32.9306 32.3305 33.0666 32.2651 33.2239 32.2225C33.3839 32.1771 33.5492 32.1545 33.7199 32.1545C34.0292 32.1545 34.2679 32.2291 34.4359 32.3785C34.6066 32.5251 34.6919 32.7531 34.6919 33.0625V34.3145H34.2199ZM33.5479 34.3425C33.3879 34.3425 33.2479 34.3158 33.1279 34.2625C33.0079 34.2065 32.9146 34.1305 32.8479 34.0345C32.7839 33.9358 32.7519 33.8251 32.7519 33.7025C32.7519 33.5825 32.7799 33.4745 32.8359 33.3785C32.8946 33.2825 32.9892 33.2065 33.1199 33.1505C33.2506 33.0945 33.4239 33.0665 33.6399 33.0665H34.2599V33.3985H33.6759C33.5052 33.3985 33.3906 33.4265 33.3319 33.4825C33.2732 33.5358 33.2439 33.6025 33.2439 33.6825C33.2439 33.7731 33.2799 33.8451 33.3519 33.8985C33.4239 33.9518 33.5239 33.9785 33.6519 33.9785C33.7746 33.9785 33.8839 33.9505 33.9799 33.8945C34.0786 33.8385 34.1492 33.7558 34.1919 33.6465L34.2759 33.9465C34.2279 34.0718 34.1412 34.1691 34.0159 34.2385C33.8932 34.3078 33.7372 34.3425 33.5479 34.3425ZM35.3106 34.3145V32.1785H35.8106V33.5865L36.9906 32.1785H37.4466V34.3145H36.9466V32.9065L35.7706 34.3145H35.3106ZM36.3466 31.9265C36.1333 31.9265 35.9693 31.8771 35.8546 31.7785C35.7399 31.6771 35.6813 31.5305 35.6786 31.3385H36.0106C36.0133 31.4345 36.0426 31.5105 36.0986 31.5665C36.1573 31.6225 36.2386 31.6505 36.3426 31.6505C36.4439 31.6505 36.5239 31.6225 36.5826 31.5665C36.6439 31.5105 36.6759 31.4345 36.6786 31.3385H37.0186C37.0159 31.5305 36.9559 31.6771 36.8386 31.7785C36.7239 31.8771 36.5599 31.9265 36.3466 31.9265ZM38.1192 34.3145V32.1785H38.6192V33.0465H39.6952V32.1785H40.1952V34.3145H39.6952V33.4705H38.6192V34.3145H38.1192Z" fill="white"/>
</svg>
